<svg width="1208" height="517" xmlns="http://www.w3.org/2000/svg" xmlns:xlink="http://www.w3.org/1999/xlink" overflow="hidden"><defs><filter id="fx0" x="-10%" y="-10%" width="120%" height="120%" filterUnits="userSpaceOnUse" primitiveUnits="userSpaceOnUse"><feComponentTransfer color-interpolation-filters="sRGB"><feFuncR type="discrete" tableValues="0 0"/><feFuncG type="discrete" tableValues="0 0"/><feFuncB type="discrete" tableValues="0 0"/><feFuncA type="linear" slope="0.4" intercept="0"/></feComponentTransfer><feGaussianBlur stdDeviation="2.22222 2.22222"/></filter><filter id="fx1" x="-10%" y="-10%" width="120%" height="120%" filterUnits="userSpaceOnUse" primitiveUnits="userSpaceOnUse"><feComponentTransfer color-interpolation-filters="sRGB"><feFuncR type="discrete" tableValues="0 0"/><feFuncG type="discrete" tableValues="0 0"/><feFuncB type="discrete" tableValues="0 0"/><feFuncA type="linear" slope="0.4" intercept="0"/></feComponentTransfer><feGaussianBlur stdDeviation="2.22222 2.22222"/></filter><filter id="fx2" x="-10%" y="-10%" width="120%" height="120%" filterUnits="userSpaceOnUse" primitiveUnits="userSpaceOnUse"><feComponentTransfer color-interpolation-filters="sRGB"><feFuncR type="discrete" tableValues="0 0"/><feFuncG type="discrete" tableValues="0 0"/><feFuncB type="discrete" tableValues="0 0"/><feFuncA type="linear" slope="0.4" intercept="0"/></feComponentTransfer><feGaussianBlur stdDeviation="2.22222 2.22222"/></filter><filter id="fx3" x="-10%" y="-10%" width="120%" height="120%" filterUnits="userSpaceOnUse" primitiveUnits="userSpaceOnUse"><feComponentTransfer color-interpolation-filters="sRGB"><feFuncR type="discrete" tableValues="0 0"/><feFuncG type="discrete" tableValues="0 0"/><feFuncB type="discrete" tableValues="0 0"/><feFuncA type="linear" slope="0.4" intercept="0"/></feComponentTransfer><feGaussianBlur stdDeviation="2.22222 2.22222"/></filter><filter id="fx4" x="-10%" y="-10%" width="120%" height="120%" filterUnits="userSpaceOnUse" primitiveUnits="userSpaceOnUse"><feComponentTransfer color-interpolation-filters="sRGB"><feFuncR type="discrete" tableValues="0 0"/><feFuncG type="discrete" tableValues="0 0"/><feFuncB type="discrete" tableValues="0 0"/><feFuncA type="linear" slope="0.4" intercept="0"/></feComponentTransfer><feGaussianBlur stdDeviation="2.22222 2.22222"/></filter><filter id="fx5" x="-10%" y="-10%" width="120%" height="120%" filterUnits="userSpaceOnUse" primitiveUnits="userSpaceOnUse"><feComponentTransfer color-interpolation-filters="sRGB"><feFuncR type="discrete" tableValues="0 0"/><feFuncG type="discrete" tableValues="0 0"/><feFuncB type="discrete" tableValues="0 0"/><feFuncA type="linear" slope="0.4" intercept="0"/></feComponentTransfer><feGaussianBlur stdDeviation="2.22222 2.22222"/></filter><filter id="fx6" x="-10%" y="-10%" width="120%" height="120%" filterUnits="userSpaceOnUse" primitiveUnits="userSpaceOnUse"><feComponentTransfer color-interpolation-filters="sRGB"><feFuncR type="discrete" tableValues="0 0"/><feFuncG type="discrete" tableValues="0 0"/><feFuncB type="discrete" tableValues="0 0"/><feFuncA type="linear" slope="0.4" intercept="0"/></feComponentTransfer><feGaussianBlur stdDeviation="2.22222 2.22222"/></filter><filter id="fx7" x="-10%" y="-10%" width="120%" height="120%" filterUnits="userSpaceOnUse" primitiveUnits="userSpaceOnUse"><feComponentTransfer color-interpolation-filters="sRGB"><feFuncR type="discrete" tableValues="0 0"/><feFuncG type="discrete" tableValues="0 0"/><feFuncB type="discrete" tableValues="0 0"/><feFuncA type="linear" slope="0.4" intercept="0"/></feComponentTransfer><feGaussianBlur stdDeviation="2.22222 2.22222"/></filter><filter id="fx8" x="-10%" y="-10%" width="120%" height="120%" filterUnits="userSpaceOnUse" primitiveUnits="userSpaceOnUse"><feComponentTransfer color-interpolation-filters="sRGB"><feFuncR type="discrete" tableValues="0 0"/><feFuncG type="discrete" tableValues="0 0"/><feFuncB type="discrete" tableValues="0 0"/><feFuncA type="linear" slope="0.4" intercept="0"/></feComponentTransfer><feGaussianBlur stdDeviation="2.22222 2.22222"/></filter><filter id="fx9" x="-10%" y="-10%" width="120%" height="120%" filterUnits="userSpaceOnUse" primitiveUnits="userSpaceOnUse"><feComponentTransfer color-interpolation-filters="sRGB"><feFuncR type="discrete" tableValues="0 0"/><feFuncG type="discrete" tableValues="0 0"/><feFuncB type="discrete" tableValues="0 0"/><feFuncA type="linear" slope="0.4" intercept="0"/></feComponentTransfer><feGaussianBlur stdDeviation="2.22222 2.22222"/></filter><filter id="fx10" x="-10%" y="-10%" width="120%" height="120%" filterUnits="userSpaceOnUse" primitiveUnits="userSpaceOnUse"><feComponentTransfer color-interpolation-filters="sRGB"><feFuncR type="discrete" tableValues="0 0"/><feFuncG type="discrete" tableValues="0 0"/><feFuncB type="discrete" tableValues="0 0"/><feFuncA type="linear" slope="0.4" intercept="0"/></feComponentTransfer><feGaussianBlur stdDeviation="2.22222 2.22222"/></filter><filter id="fx11" x="-10%" y="-10%" width="120%" height="120%" filterUnits="userSpaceOnUse" primitiveUnits="userSpaceOnUse"><feComponentTransfer color-interpolation-filters="sRGB"><feFuncR type="discrete" tableValues="0 0"/><feFuncG type="discrete" tableValues="0 0"/><feFuncB type="discrete" tableValues="0 0"/><feFuncA type="linear" slope="0.4" intercept="0"/></feComponentTransfer><feGaussianBlur stdDeviation="2.22222 2.22222"/></filter><filter id="fx12" x="-10%" y="-10%" width="120%" height="120%" filterUnits="userSpaceOnUse" primitiveUnits="userSpaceOnUse"><feComponentTransfer color-interpolation-filters="sRGB"><feFuncR type="discrete" tableValues="0 0"/><feFuncG type="discrete" tableValues="0 0"/><feFuncB type="discrete" tableValues="0 0"/><feFuncA type="linear" slope="0.4" intercept="0"/></feComponentTransfer><feGaussianBlur stdDeviation="2.22222 2.22222"/></filter><filter id="fx13" x="-10%" y="-10%" width="120%" height="120%" filterUnits="userSpaceOnUse" primitiveUnits="userSpaceOnUse"><feComponentTransfer color-interpolation-filters="sRGB"><feFuncR type="discrete" tableValues="0 0"/><feFuncG type="discrete" tableValues="0 0"/><feFuncB type="discrete" tableValues="0 0"/><feFuncA type="linear" slope="0.4" intercept="0"/></feComponentTransfer><feGaussianBlur stdDeviation="2.22222 2.22222"/></filter><filter id="fx14" x="-10%" y="-10%" width="120%" height="120%" filterUnits="userSpaceOnUse" primitiveUnits="userSpaceOnUse"><feComponentTransfer color-interpolation-filters="sRGB"><feFuncR type="discrete" tableValues="0 0"/><feFuncG type="discrete" tableValues="0 0"/><feFuncB type="discrete" tableValues="0 0"/><feFuncA type="linear" slope="0.4" intercept="0"/></feComponentTransfer><feGaussianBlur stdDeviation="2.22222 2.22222"/></filter><filter id="fx15" x="-10%" y="-10%" width="120%" height="120%" filterUnits="userSpaceOnUse" primitiveUnits="userSpaceOnUse"><feComponentTransfer color-interpolation-filters="sRGB"><feFuncR type="discrete" tableValues="0 0"/><feFuncG type="discrete" tableValues="0 0"/><feFuncB type="discrete" tableValues="0 0"/><feFuncA type="linear" slope="0.4" intercept="0"/></feComponentTransfer><feGaussianBlur stdDeviation="2.22222 2.22222"/></filter><filter id="fx16" x="-10%" y="-10%" width="120%" height="120%" filterUnits="userSpaceOnUse" primitiveUnits="userSpaceOnUse"><feComponentTransfer color-interpolation-filters="sRGB"><feFuncR type="discrete" tableValues="0 0"/><feFuncG type="discrete" tableValues="0 0"/><feFuncB type="discrete" tableValues="0 0"/><feFuncA type="linear" slope="0.4" intercept="0"/></feComponentTransfer><feGaussianBlur stdDeviation="2.22222 2.22222"/></filter><filter id="fx17" x="-10%" y="-10%" width="120%" height="120%" filterUnits="userSpaceOnUse" primitiveUnits="userSpaceOnUse"><feComponentTransfer color-interpolation-filters="sRGB"><feFuncR type="discrete" tableValues="0 0"/><feFuncG type="discrete" tableValues="0 0"/><feFuncB type="discrete" tableValues="0 0"/><feFuncA type="linear" slope="0.4" intercept="0"/></feComponentTransfer><feGaussianBlur stdDeviation="2.22222 2.22222"/></filter><filter id="fx18" x="-10%" y="-10%" width="120%" height="120%" filterUnits="userSpaceOnUse" primitiveUnits="userSpaceOnUse"><feComponentTransfer color-interpolation-filters="sRGB"><feFuncR type="discrete" tableValues="0 0"/><feFuncG type="discrete" tableValues="0 0"/><feFuncB type="discrete" tableValues="0 0"/><feFuncA type="linear" slope="0.4" intercept="0"/></feComponentTransfer><feGaussianBlur stdDeviation="2.22222 2.22222"/></filter><filter id="fx19" x="-10%" y="-10%" width="120%" height="120%" filterUnits="userSpaceOnUse" primitiveUnits="userSpaceOnUse"><feComponentTransfer color-interpolation-filters="sRGB"><feFuncR type="discrete" tableValues="0 0"/><feFuncG type="discrete" tableValues="0 0"/><feFuncB type="discrete" tableValues="0 0"/><feFuncA type="linear" slope="0.4" intercept="0"/></feComponentTransfer><feGaussianBlur stdDeviation="2.22222 2.22222"/></filter><filter id="fx20" x="-10%" y="-10%" width="120%" height="120%" filterUnits="userSpaceOnUse" primitiveUnits="userSpaceOnUse"><feComponentTransfer color-interpolation-filters="sRGB"><feFuncR type="discrete" tableValues="0 0"/><feFuncG type="discrete" tableValues="0 0"/><feFuncB type="discrete" tableValues="0 0"/><feFuncA type="linear" slope="0.4" intercept="0"/></feComponentTransfer><feGaussianBlur stdDeviation="2.22222 2.22222"/></filter><filter id="fx21" x="-10%" y="-10%" width="120%" height="120%" filterUnits="userSpaceOnUse" primitiveUnits="userSpaceOnUse"><feComponentTransfer color-interpolation-filters="sRGB"><feFuncR type="discrete" tableValues="0 0"/><feFuncG type="discrete" tableValues="0 0"/><feFuncB type="discrete" tableValues="0 0"/><feFuncA type="linear" slope="0.4" intercept="0"/></feComponentTransfer><feGaussianBlur stdDeviation="2.22222 2.22222"/></filter><filter id="fx22" x="-10%" y="-10%" width="120%" height="120%" filterUnits="userSpaceOnUse" primitiveUnits="userSpaceOnUse"><feComponentTransfer color-interpolation-filters="sRGB"><feFuncR type="discrete" tableValues="0 0"/><feFuncG type="discrete" tableValues="0 0"/><feFuncB type="discrete" tableValues="0 0"/><feFuncA type="linear" slope="0.4" intercept="0"/></feComponentTransfer><feGaussianBlur stdDeviation="2.22222 2.22222"/></filter><clipPath id="clip23"><rect x="25" y="120" width="1208" height="517"/></clipPath><clipPath id="clip24"><rect x="-4" y="-2" width="168" height="78"/></clipPath><clipPath id="clip25"><rect x="0" y="0" width="160" height="74"/></clipPath><clipPath id="clip26"><rect x="-4" y="-2" width="168" height="78"/></clipPath><clipPath id="clip27"><rect x="0" y="0" width="160" height="74"/></clipPath><clipPath id="clip28"><rect x="-4" y="-2" width="168" height="78"/></clipPath><clipPath id="clip29"><rect x="0" y="0" width="160" height="73"/></clipPath><clipPath id="clip30"><rect x="-4" y="-2" width="168" height="78"/></clipPath><clipPath id="clip31"><rect x="0" y="0" width="160" height="73"/></clipPath><clipPath id="clip32"><rect x="-4" y="-2" width="168" height="78"/></clipPath><clipPath id="clip33"><rect x="0" y="0" width="160" height="73"/></clipPath><clipPath id="clip34"><rect x="-4" y="-2" width="168" height="78"/></clipPath><clipPath id="clip35"><rect x="0" y="0" width="160" height="73"/></clipPath><clipPath id="clip36"><rect x="-4" y="-2" width="168" height="78"/></clipPath><clipPath id="clip37"><rect x="0" y="0" width="160" height="73"/></clipPath><clipPath id="clip38"><rect x="-4" y="-2" width="168" height="78"/></clipPath><clipPath id="clip39"><rect x="0" y="0" width="160" height="73"/></clipPath><clipPath id="clip40"><rect x="-4" y="-2" width="168" height="78"/></clipPath><clipPath id="clip41"><rect x="0" y="0" width="161" height="74"/></clipPath><clipPath id="clip42"><rect x="-4" y="-2" width="168" height="78"/></clipPath><clipPath id="clip43"><rect x="0" y="0" width="161" height="74"/></clipPath><clipPath id="clip44"><rect x="-4" y="-2" width="168" height="78"/></clipPath><clipPath id="clip45"><rect x="0" y="0" width="160" height="74"/></clipPath><clipPath id="clip46"><rect x="-4" y="-2" width="168" height="78"/></clipPath><clipPath id="clip47"><rect x="0" y="0" width="160" height="74"/></clipPath><clipPath id="clip48"><rect x="-4" y="-2" width="168" height="78"/></clipPath><clipPath id="clip49"><rect x="0" y="0" width="160" height="74"/></clipPath><clipPath id="clip50"><rect x="-4" y="-2" width="168" height="78"/></clipPath><clipPath id="clip51"><rect x="0" y="0" width="160" height="74"/></clipPath><clipPath id="clip52"><rect x="-4" y="-2" width="168" height="78"/></clipPath><clipPath id="clip53"><rect x="0" y="0" width="160" height="73"/></clipPath><clipPath id="clip54"><rect x="-4" y="-2" width="168" height="78"/></clipPath><clipPath id="clip55"><rect x="0" y="0" width="160" height="73"/></clipPath><clipPath id="clip56"><rect x="-4" y="-2" width="168" height="78"/></clipPath><clipPath id="clip57"><rect x="0" y="0" width="160" height="74"/></clipPath><clipPath id="clip58"><rect x="-4" y="-2" width="168" height="78"/></clipPath><clipPath id="clip59"><rect x="0" y="0" width="160" height="74"/></clipPath><clipPath id="clip60"><rect x="-4" y="-2" width="168" height="78"/></clipPath><clipPath id="clip61"><rect x="0" y="0" width="160" height="74"/></clipPath><clipPath id="clip62"><rect x="-4" y="-2" width="168" height="78"/></clipPath><clipPath id="clip63"><rect x="0" y="0" width="160" height="74"/></clipPath><clipPath id="clip64"><rect x="-4" y="-2" width="168" height="78"/></clipPath><clipPath id="clip65"><rect x="0" y="0" width="161" height="73"/></clipPath><clipPath id="clip66"><rect x="-4" y="-2" width="168" height="78"/></clipPath><clipPath id="clip67"><rect x="0" y="0" width="161" height="74"/></clipPath><clipPath id="clip68"><rect x="-4" y="-2" width="168" height="78"/></clipPath><clipPath id="clip69"><rect x="0" y="0" width="161" height="74"/></clipPath></defs><g clip-path="url(#clip23)" transform="translate(-25 -120)"><g clip-path="url(#clip24)" filter="url(#fx0)" transform="translate(531 322)"><g clip-path="url(#clip25)"><path d="M7.58002 20.3684C7.58002 13.7805 12.9205 8.44 19.5084 8.44L140.492 8.44C147.079 8.44 152.42 13.7805 152.42 20.3684L152.42 53.6316C152.42 60.2195 147.079 65.56 140.492 65.56L19.5084 65.56C12.9205 65.56 7.58002 60.2195 7.58002 53.6316Z" fill="#C55A11" fill-rule="evenodd"/></g></g><path d="M540 342.695C540 336.236 545.236 331 551.695 331L670.305 331C676.764 331 682 336.236 682 342.695L682 375.305C682 381.764 676.764 387 670.305 387L551.695 387C545.236 387 540 381.764 540 375.305Z" fill="#C55A11" fill-rule="evenodd"/><text fill="#FFFFFF" font-family="Noto Sans,Noto Sans_MSFontService,sans-serif" font-weight="400" font-size="24" transform="translate(577.416 367)">Name</text><g clip-path="url(#clip26)" filter="url(#fx1)" transform="translate(683 322)"><g clip-path="url(#clip27)"><path d="M7.58002 20.3684C7.58002 13.7805 12.9205 8.44 19.5084 8.44L140.492 8.44C147.079 8.44 152.42 13.7805 152.42 20.3684L152.42 53.6316C152.42 60.2195 147.079 65.56 140.492 65.56L19.5084 65.56C12.9205 65.56 7.58002 60.2195 7.58002 53.6316Z" fill="#C55A11" fill-rule="evenodd"/></g></g><path d="M692 342.695C692 336.236 697.236 331 703.695 331L822.305 331C828.764 331 834 336.236 834 342.695L834 375.305C834 381.764 828.764 387 822.305 387L703.695 387C697.236 387 692 381.764 692 375.305Z" fill="#C55A11" fill-rule="evenodd"/><text fill="#FFFFFF" font-family="Noto Sans,Noto Sans_MSFontService,sans-serif" font-weight="400" font-size="24" transform="translate(717.789 367)">Position</text><g clip-path="url(#clip28)" filter="url(#fx2)" transform="translate(531 388)"><g clip-path="url(#clip29)"><path d="M7.58002 20.1654C7.58002 13.6952 12.8252 8.45001 19.2954 8.45001L140.705 8.45001C147.175 8.45001 152.42 13.6952 152.42 20.1654L152.42 52.8347C152.42 59.3049 147.175 64.55 140.705 64.55L19.2954 64.55C12.8252 64.55 7.58002 59.3049 7.58002 52.8347Z" fill="#C55A11" fill-rule="evenodd"/></g></g><path d="M540 408.486C540 402.142 545.142 397 551.486 397L670.514 397C676.858 397 682 402.142 682 408.486L682 440.514C682 446.858 676.858 452 670.514 452L551.486 452C545.142 452 540 446.858 540 440.514Z" fill="#C55A11" fill-rule="evenodd"/><text fill="#FFFFFF" font-family="Noto Sans,Noto Sans_MSFontService,sans-serif" font-weight="400" font-size="24" transform="translate(573.332 433)">Nation</text><g clip-path="url(#clip30)" filter="url(#fx3)" transform="translate(683 388)"><g clip-path="url(#clip31)"><path d="M7.58002 20.1654C7.58002 13.6952 12.8252 8.45001 19.2954 8.45001L140.705 8.45001C147.175 8.45001 152.42 13.6952 152.42 20.1654L152.42 52.8347C152.42 59.3049 147.175 64.55 140.705 64.55L19.2954 64.55C12.8252 64.55 7.58002 59.3049 7.58002 52.8347Z" fill="#C55A11" fill-rule="evenodd"/></g></g><path d="M692 408.486C692 402.142 697.142 397 703.486 397L822.514 397C828.858 397 834 402.142 834 408.486L834 440.514C834 446.858 828.858 452 822.514 452L703.486 452C697.142 452 692 446.858 692 440.514Z" fill="#C55A11" fill-rule="evenodd"/><text fill="#FFFFFF" font-family="Noto Sans,Noto Sans_MSFontService,sans-serif" font-weight="400" font-size="24" transform="translate(735.623 433)">Birth</text><g clip-path="url(#clip32)" filter="url(#fx4)" transform="translate(531 454)"><g clip-path="url(#clip33)"><path d="M7.58002 20.1654C7.58002 13.6952 12.8252 8.45001 19.2954 8.45001L140.705 8.45001C147.175 8.45001 152.42 13.6952 152.42 20.1654L152.42 52.8347C152.42 59.3049 147.175 64.55 140.705 64.55L19.2954 64.55C12.8252 64.55 7.58002 59.3049 7.58002 52.8347Z" fill="#C55A11" fill-rule="evenodd"/></g></g><path d="M540 474.486C540 468.142 545.142 463 551.486 463L670.514 463C676.858 463 682 468.142 682 474.486L682 506.514C682 512.858 676.858 518 670.514 518L551.486 518C545.142 518 540 512.858 540 506.514Z" fill="#C55A11" fill-rule="evenodd"/><text fill="#FFFFFF" font-family="Noto Sans,Noto Sans_MSFontService,sans-serif" font-weight="400" font-size="24" transform="translate(566.249 499)">Country</text><g clip-path="url(#clip34)" filter="url(#fx5)" transform="translate(683 454)"><g clip-path="url(#clip35)"><path d="M7.58002 20.1654C7.58002 13.6952 12.8252 8.45001 19.2954 8.45001L140.705 8.45001C147.175 8.45001 152.42 13.6952 152.42 20.1654L152.42 52.8347C152.42 59.3049 147.175 64.55 140.705 64.55L19.2954 64.55C12.8252 64.55 7.58002 59.3049 7.58002 52.8347Z" fill="#C55A11" fill-rule="evenodd"/></g></g><path d="M692 474.486C692 468.142 697.142 463 703.486 463L822.514 463C828.858 463 834 468.142 834 474.486L834 506.514C834 512.858 828.858 518 822.514 518L703.486 518C697.142 518 692 512.858 692 506.514Z" fill="#C55A11" fill-rule="evenodd"/><text fill="#FFFFFF" font-family="Noto Sans,Noto Sans_MSFontService,sans-serif" font-weight="400" font-size="24" transform="translate(725.289 499)">Height</text><g clip-path="url(#clip36)" filter="url(#fx6)" transform="translate(531 519)"><g clip-path="url(#clip37)"><path d="M7.58002 20.1654C7.58002 13.6952 12.8252 8.45001 19.2954 8.45001L140.705 8.45001C147.175 8.45001 152.42 13.6952 152.42 20.1654L152.42 52.8347C152.42 59.3049 147.175 64.55 140.705 64.55L19.2954 64.55C12.8252 64.55 7.58002 59.3049 7.58002 52.8347Z" fill="#C55A11" fill-rule="evenodd"/></g></g><path d="M540 539.486C540 533.142 545.142 528 551.486 528L670.514 528C676.858 528 682 533.142 682 539.486L682 571.514C682 577.858 676.858 583 670.514 583L551.486 583C545.142 583 540 577.858 540 571.514Z" fill="#C55A11" fill-rule="evenodd"/><text fill="#FFFFFF" font-family="Noto Sans,Noto Sans_MSFontService,sans-serif" font-weight="400" font-size="24" transform="translate(571.082 564)">Weight</text><g clip-path="url(#clip38)" filter="url(#fx7)" transform="translate(683 519)"><g clip-path="url(#clip39)"><path d="M7.58002 20.1654C7.58002 13.6952 12.8252 8.45001 19.2954 8.45001L140.705 8.45001C147.175 8.45001 152.42 13.6952 152.42 20.1654L152.42 52.8347C152.42 59.3049 147.175 64.55 140.705 64.55L19.2954 64.55C12.8252 64.55 7.58002 59.3049 7.58002 52.8347Z" fill="#C55A11" fill-rule="evenodd"/></g></g><path d="M692 539.486C692 533.142 697.142 528 703.486 528L822.514 528C828.858 528 834 533.142 834 539.486L834 571.514C834 577.858 828.858 583 822.514 583L703.486 583C697.142 583 692 577.858 692 571.514Z" fill="#C55A11" fill-rule="evenodd"/><text fill="#FFFFFF" font-family="Noto Sans,Noto Sans_MSFontService,sans-serif" font-weight="400" font-size="24" transform="translate(738.123 564)">Foot</text><g clip-path="url(#clip40)" filter="url(#fx8)" transform="translate(243 129)"><g clip-path="url(#clip41)"><path d="M7.57001 20.3684C7.57001 13.7805 12.9105 8.44 19.4983 8.44L141.502 8.44C148.09 8.44 153.43 13.7805 153.43 20.3684L153.43 53.6317C153.43 60.2195 148.09 65.56 141.502 65.56L19.4983 65.56C12.9105 65.56 7.57001 60.2195 7.57001 53.6317Z" fill="#00B050" fill-rule="evenodd"/></g></g><path d="M252 149.694C252 143.236 257.236 138 263.694 138L383.306 138C389.764 138 395 143.236 395 149.694L395 182.306C395 188.764 389.764 194 383.306 194L263.694 194C257.236 194 252 188.764 252 182.306Z" fill="#00B050" fill-rule="evenodd"/><text fill="#FFFFFF" font-family="Noto Sans,Noto Sans_MSFontService,sans-serif" font-weight="400" font-size="24" transform="translate(271.852 175)">Player<tspan font-weight="700" x="75.8333" y="0">ID</tspan></text><path d="M522 326.954C522 322.009 526.009 318 530.954 318L842.046 318C846.991 318 851 322.009 851 326.954L851 589.046C851 593.991 846.991 598 842.046 598L530.954 598C526.009 598 522 593.991 522 589.046Z" stroke="#C55A11" stroke-width="4" stroke-miterlimit="8" stroke-dasharray="16 12 4 12" fill="none" fill-rule="evenodd"/><g clip-path="url(#clip42)" filter="url(#fx9)" transform="translate(24 346)"><g clip-path="url(#clip43)"><path d="M7.57 20.3684C7.57 13.7805 12.9105 8.44 19.4983 8.44L141.502 8.44C148.09 8.44 153.43 13.7805 153.43 20.3684L153.43 53.6317C153.43 60.2195 148.09 65.56 141.502 65.56L19.4983 65.56C12.9105 65.56 7.57 60.2195 7.57 53.6317Z" fill="#7030A0" fill-rule="evenodd"/></g></g><path d="M33 366.694C33 360.236 38.2358 355 44.6944 355L164.306 355C170.764 355 176 360.236 176 366.694L176 399.306C176 405.764 170.764 411 164.306 411L44.6944 411C38.2358 411 33 405.764 33 399.306Z" fill="#7030A0" fill-rule="evenodd"/><text fill="#FFFFFF" font-family="Noto Sans,Noto Sans_MSFontService,sans-serif" font-weight="400" font-size="24" transform="translate(73.2762 391)">Team</text><g clip-path="url(#clip44)" filter="url(#fx10)" transform="translate(531 145)"><g clip-path="url(#clip45)"><path d="M7.58002 20.3684C7.58002 13.7805 12.9205 8.44 19.5084 8.44L140.492 8.44C147.079 8.44 152.42 13.7805 152.42 20.3684L152.42 53.6316C152.42 60.2195 147.079 65.56 140.492 65.56L19.5084 65.56C12.9205 65.56 7.58002 60.2195 7.58002 53.6316Z" fill="#7030A0" fill-rule="evenodd"/></g></g><path d="M540 165.695C540 159.236 545.236 154 551.695 154L670.305 154C676.764 154 682 159.236 682 165.695L682 198.305C682 204.764 676.764 210 670.305 210L551.695 210C545.236 210 540 204.764 540 198.305Z" fill="#7030A0" fill-rule="evenodd"/><text fill="#FFFFFF" font-family="Noto Sans,Noto Sans_MSFontService,sans-serif" font-weight="400" font-size="24" transform="translate(577.582 191)">Active</text><g clip-path="url(#clip46)" filter="url(#fx11)" transform="translate(531 212)"><g clip-path="url(#clip47)"><path d="M7.58002 20.3684C7.58002 13.7805 12.9205 8.44 19.5084 8.44L140.492 8.44C147.079 8.44 152.42 13.7805 152.42 20.3684L152.42 53.6316C152.42 60.2195 147.079 65.56 140.492 65.56L19.5084 65.56C12.9205 65.56 7.58002 60.2195 7.58002 53.6316Z" fill="#7030A0" fill-rule="evenodd"/></g></g><path d="M540 232.695C540 226.236 545.236 221 551.695 221L670.305 221C676.764 221 682 226.236 682 232.695L682 265.305C682 271.764 676.764 277 670.305 277L551.695 277C545.236 277 540 271.764 540 265.305Z" fill="#7030A0" fill-rule="evenodd"/><text fill="#FFFFFF" font-family="Noto Sans,Noto Sans_MSFontService,sans-serif" font-weight="400" font-size="24" transform="translate(554.666 258)">Start Date</text><g clip-path="url(#clip48)" filter="url(#fx12)" transform="translate(683 212)"><g clip-path="url(#clip49)"><path d="M7.58002 20.3684C7.58002 13.7805 12.9205 8.44 19.5084 8.44L140.492 8.44C147.079 8.44 152.42 13.7805 152.42 20.3684L152.42 53.6316C152.42 60.2195 147.079 65.56 140.492 65.56L19.5084 65.56C12.9205 65.56 7.58002 60.2195 7.58002 53.6316Z" fill="#7030A0" fill-rule="evenodd"/></g></g><path d="M692 232.695C692 226.236 697.236 221 703.695 221L822.305 221C828.764 221 834 226.236 834 232.695L834 265.305C834 271.764 828.764 277 822.305 277L703.695 277C697.236 277 692 271.764 692 265.305Z" fill="#7030A0" fill-rule="evenodd"/><text fill="#FFFFFF" font-family="Noto Sans,Noto Sans_MSFontService,sans-serif" font-weight="400" font-size="24" transform="translate(712.04 258)">End Date</text><g clip-path="url(#clip50)" filter="url(#fx13)" transform="translate(683 145)"><g clip-path="url(#clip51)"><path d="M7.58002 20.3684C7.58002 13.7805 12.9205 8.44 19.5084 8.44L140.492 8.44C147.079 8.44 152.42 13.7805 152.42 20.3684L152.42 53.6316C152.42 60.2195 147.079 65.56 140.492 65.56L19.5084 65.56C12.9205 65.56 7.58002 60.2195 7.58002 53.6316Z" fill="#7030A0" fill-rule="evenodd"/></g></g><path d="M692 165.695C692 159.236 697.236 154 703.695 154L822.305 154C828.764 154 834 159.236 834 165.695L834 198.305C834 204.764 828.764 210 822.305 210L703.695 210C697.236 210 692 204.764 692 198.305Z" fill="#7030A0" fill-rule="evenodd"/><text fill="#FFFFFF" font-family="Noto Sans,Noto Sans_MSFontService,sans-serif" font-weight="400" font-size="24" transform="translate(715.873 190)">Transfer</text><path d="M522 150.605C522 148.062 524.062 146 526.605 146L846.395 146C848.938 146 851 148.062 851 150.605L851 285.395C851 287.938 848.938 290 846.395 290L526.605 290C524.062 290 522 287.938 522 285.395Z" stroke="#7030A0" stroke-width="4" stroke-miterlimit="8" stroke-dasharray="16 12 4 12" fill="none" fill-rule="evenodd"/><path d="M395 164 450.041 164 450.041 233.43 448.041 231.43 491.082 231.43 491.082 235.43 446.041 235.43 446.041 166 448.041 168 395 168ZM489.082 227.43 501.082 233.43 489.082 239.43Z"/><text font-family="Noto Sans,Noto Sans_MSFontService,sans-serif" font-weight="700" font-size="24" transform="translate(1038.66 450)">…</text><g clip-path="url(#clip52)" filter="url(#fx14)" transform="translate(893 225)"><g clip-path="url(#clip53)"><path d="M7.58002 20.1653C7.58002 13.6951 12.8252 8.45 19.2954 8.45L140.705 8.45C147.175 8.45 152.42 13.6951 152.42 20.1653L152.42 52.8347C152.42 59.3049 147.175 64.55 140.705 64.55L19.2954 64.55C12.8252 64.55 7.58002 59.3049 7.58002 52.8347Z" fill="#0070C0" fill-rule="evenodd"/></g></g><path d="M902 245.486C902 239.142 907.142 234 913.486 234L1032.51 234C1038.86 234 1044 239.142 1044 245.486L1044 277.514C1044 283.858 1038.86 289 1032.51 289L913.486 289C907.142 289 902 283.858 902 277.514Z" fill="#0070C0" fill-rule="evenodd"/><text fill="#FFFFFF" font-family="Noto Sans,Noto Sans_MSFontService,sans-serif" font-weight="400" font-size="19" transform="translate(918.872 268)">Competition</text><g clip-path="url(#clip54)" filter="url(#fx15)" transform="translate(1045 225)"><g clip-path="url(#clip55)"><path d="M7.57996 20.1653C7.57996 13.6951 12.8251 8.45 19.2953 8.45L140.705 8.45C147.175 8.45 152.42 13.6951 152.42 20.1653L152.42 52.8347C152.42 59.3049 147.175 64.55 140.705 64.55L19.2953 64.55C12.8251 64.55 7.57996 59.3049 7.57996 52.8347Z" fill="#0070C0" fill-rule="evenodd"/></g></g><path d="M1054 245.486C1054 239.142 1059.14 234 1065.49 234L1184.51 234C1190.86 234 1196 239.142 1196 245.486L1196 277.514C1196 283.858 1190.86 289 1184.51 289L1065.49 289C1059.14 289 1054 283.858 1054 277.514Z" fill="#0070C0" fill-rule="evenodd"/><text fill="#FFFFFF" font-family="Noto Sans,Noto Sans_MSFontService,sans-serif" font-weight="400" font-size="21" transform="translate(1080 269)">Calendar</text><g clip-path="url(#clip56)" filter="url(#fx16)" transform="translate(893 295)"><g clip-path="url(#clip57)"><path d="M7.58002 20.3684C7.58002 13.7805 12.9205 8.44 19.5084 8.44L140.492 8.44C147.079 8.44 152.42 13.7805 152.42 20.3684L152.42 53.6316C152.42 60.2195 147.079 65.56 140.492 65.56L19.5084 65.56C12.9205 65.56 7.58002 60.2195 7.58002 53.6316Z" fill="#0070C0" fill-rule="evenodd"/></g></g><path d="M902 315.695C902 309.236 907.236 304 913.695 304L1032.31 304C1038.76 304 1044 309.236 1044 315.695L1044 348.305C1044 354.764 1038.76 360 1032.31 360L913.695 360C907.236 360 902 354.764 902 348.305Z" fill="#0070C0" fill-rule="evenodd"/><text fill="#FFFFFF" font-family="Noto Sans,Noto Sans_MSFontService,sans-serif" font-weight="400" font-size="21" transform="translate(950.205 339)">Goal</text><g clip-path="url(#clip58)" filter="url(#fx17)" transform="translate(1045 295)"><g clip-path="url(#clip59)"><path d="M7.57996 20.3684C7.57996 13.7805 12.9205 8.44 19.5083 8.44L140.492 8.44C147.079 8.44 152.42 13.7805 152.42 20.3684L152.42 53.6316C152.42 60.2195 147.079 65.56 140.492 65.56L19.5083 65.56C12.9205 65.56 7.57996 60.2195 7.57996 53.6316Z" fill="#0070C0" fill-rule="evenodd"/></g></g><path d="M1054 315.695C1054 309.236 1059.24 304 1065.69 304L1184.31 304C1190.76 304 1196 309.236 1196 315.695L1196 348.305C1196 354.764 1190.76 360 1184.31 360L1065.69 360C1059.24 360 1054 354.764 1054 348.305Z" fill="#0070C0" fill-rule="evenodd"/><text fill="#FFFFFF" font-family="Noto Sans,Noto Sans_MSFontService,sans-serif" font-weight="400" font-size="21" transform="translate(1096.41 339)">Assist</text><g clip-path="url(#clip60)" filter="url(#fx18)" transform="translate(893 365)"><g clip-path="url(#clip61)"><path d="M7.58002 20.3684C7.58002 13.7805 12.9205 8.44 19.5084 8.44L140.492 8.44C147.079 8.44 152.42 13.7805 152.42 20.3684L152.42 53.6316C152.42 60.2195 147.079 65.56 140.492 65.56L19.5084 65.56C12.9205 65.56 7.58002 60.2195 7.58002 53.6316Z" fill="#0070C0" fill-rule="evenodd"/></g></g><path d="M902 385.695C902 379.236 907.236 374 913.695 374L1032.31 374C1038.76 374 1044 379.236 1044 385.695L1044 418.305C1044 424.764 1038.76 430 1032.31 430L913.695 430C907.236 430 902 424.764 902 418.305Z" fill="#0070C0" fill-rule="evenodd"/><text fill="#FFFFFF" font-family="Noto Sans,Noto Sans_MSFontService,sans-serif" font-weight="400" font-size="19" transform="translate(920.538 409)">Appearance</text><g clip-path="url(#clip62)" filter="url(#fx19)" transform="translate(1045 365)"><g clip-path="url(#clip63)"><path d="M7.57996 20.3684C7.57996 13.7805 12.9205 8.44 19.5083 8.44L140.492 8.44C147.079 8.44 152.42 13.7805 152.42 20.3684L152.42 53.6316C152.42 60.2195 147.079 65.56 140.492 65.56L19.5083 65.56C12.9205 65.56 7.57996 60.2195 7.57996 53.6316Z" fill="#0070C0" fill-rule="evenodd"/></g></g><path d="M1054 385.695C1054 379.236 1059.24 374 1065.69 374L1184.31 374C1190.76 374 1196 379.236 1196 385.695L1196 418.305C1196 424.764 1190.76 430 1184.31 430L1065.69 430C1059.24 430 1054 424.764 1054 418.305Z" fill="#0070C0" fill-rule="evenodd"/><text fill="#FFFFFF" font-family="Noto Sans,Noto Sans_MSFontService,sans-serif" font-weight="400" font-size="19" transform="translate(1076.41 398)">Yellow/Red <tspan x="27.9133" y="22">Card</tspan></text><path d="M884 229.707C884 225.451 887.451 222 891.707 222L1204.29 222C1208.55 222 1212 225.451 1212 229.707L1212 455.293C1212 459.549 1208.55 463 1204.29 463L891.707 463C887.451 463 884 459.549 884 455.293Z" stroke="#0070C0" stroke-width="4" stroke-miterlimit="8" stroke-dasharray="16 12 4 12" fill="none" fill-rule="evenodd"/><path d="M0-2 40.0846-2 40.0846 216.625 38.0846 214.625 66.1691 214.625 66.1691 218.625 36.0846 218.625 36.0846 0 38.0846 2 0 2ZM64.1691 210.625 76.1691 216.625 64.1691 222.625Z" transform="matrix(1 0 0 -1 176 382.625)"/><g clip-path="url(#clip64)" filter="url(#fx20)" transform="translate(243 199)"><g clip-path="url(#clip65)"><path d="M7.57001 20.1654C7.57001 13.6952 12.8152 8.45 19.2854 8.45L141.715 8.45C148.185 8.45 153.43 13.6952 153.43 20.1654L153.43 52.8346C153.43 59.3048 148.185 64.55 141.715 64.55L19.2854 64.55C12.8152 64.55 7.57001 59.3048 7.57001 52.8346Z" fill="#00B050" fill-rule="evenodd"/></g></g><path d="M252 219.486C252 213.142 257.142 208 263.486 208L383.514 208C389.858 208 395 213.142 395 219.486L395 251.514C395 257.858 389.858 263 383.514 263L263.486 263C257.142 263 252 257.858 252 251.514Z" fill="#00B050" fill-rule="evenodd"/><text fill="#FFFFFF" font-family="Noto Sans,Noto Sans_MSFontService,sans-serif" font-weight="400" font-size="24" transform="translate(271.852 244)">Player<tspan font-weight="700" x="75.8333" y="0">ID</tspan></text><g clip-path="url(#clip66)" filter="url(#fx21)" transform="translate(243 271)"><g clip-path="url(#clip67)"><path d="M7.57001 20.3684C7.57001 13.7805 12.9105 8.44 19.4983 8.44L141.502 8.44C148.09 8.44 153.43 13.7805 153.43 20.3684L153.43 53.6317C153.43 60.2195 148.09 65.56 141.502 65.56L19.4983 65.56C12.9105 65.56 7.57001 60.2195 7.57001 53.6317Z" fill="#00B050" fill-rule="evenodd"/></g></g><path d="M252 291.694C252 285.236 257.236 280 263.694 280L383.306 280C389.764 280 395 285.236 395 291.694L395 324.306C395 330.764 389.764 336 383.306 336L263.694 336C257.236 336 252 330.764 252 324.306Z" fill="#00B050" fill-rule="evenodd"/><text fill="#FFFFFF" font-family="Noto Sans,Noto Sans_MSFontService,sans-serif" font-weight="400" font-size="24" transform="translate(271.852 317)">Player<tspan font-weight="700" x="75.8333" y="0">ID</tspan></text><g clip-path="url(#clip68)" filter="url(#fx22)" transform="translate(243 533)"><g clip-path="url(#clip69)"><path d="M7.57001 20.3684C7.57001 13.7805 12.9105 8.44 19.4983 8.44L141.502 8.44C148.09 8.44 153.43 13.7805 153.43 20.3684L153.43 53.6317C153.43 60.2195 148.09 65.56 141.502 65.56L19.4983 65.56C12.9105 65.56 7.57001 60.2195 7.57001 53.6317Z" fill="#00B050" fill-rule="evenodd"/></g></g><path d="M252 553.694C252 547.236 257.236 542 263.694 542L383.306 542C389.764 542 395 547.236 395 553.694L395 586.306C395 592.764 389.764 598 383.306 598L263.694 598C257.236 598 252 592.764 252 586.306Z" fill="#00B050" fill-rule="evenodd"/><text fill="#FFFFFF" font-family="Noto Sans,Noto Sans_MSFontService,sans-serif" font-weight="400" font-size="24" transform="translate(271.852 578)">Player<tspan font-weight="700" x="75.8333" y="0">ID</tspan></text><path d="M323 336 323 541.994" stroke="#00B050" stroke-width="6" stroke-miterlimit="8" stroke-dasharray="24 18" fill="none" fill-rule="evenodd"/><path d="M501 139.374C501 130.331 508.331 123 517.374 123L1213.63 123C1222.67 123 1230 130.331 1230 139.374L1230 618.626C1230 627.669 1222.67 635 1213.63 635L517.374 635C508.331 635 501 627.669 501 618.626Z" stroke="#00B050" stroke-width="4" stroke-miterlimit="8" stroke-dasharray="4 4" fill="none" fill-rule="evenodd"/><path d="M0-2 40.0846-2 40.0846 147.191 38.0846 145.191 66.1691 145.191 66.1691 149.191 36.0846 149.191 36.0846 0 38.0846 2 0 2ZM64.1691 141.191 76.1691 147.191 64.1691 153.191Z" transform="matrix(1 0 0 -1 176 383.191)"/><path d="M0-2 40.0846-2 40.0846 74.6531 38.0846 72.6531 66.1691 72.6531 66.1691 76.6531 36.0846 76.6531 36.0846 0 38.0846 2 0 2ZM64.1691 68.6531 76.1691 74.6531 64.1691 80.6531Z" transform="matrix(1 0 0 -1 176 382.653)"/><path d="M176 381 216.085 381 216.085 569.891 214.085 567.891 242.169 567.891 242.169 571.891 212.085 571.891 212.085 383 214.085 385 176 385ZM240.169 563.891 252.169 569.891 240.169 575.891Z"/></g></svg>