<svg width="1197" height="700" xmlns="http://www.w3.org/2000/svg" xmlns:xlink="http://www.w3.org/1999/xlink" overflow="hidden"><defs><filter id="fx0" x="-10%" y="-10%" width="120%" height="120%" filterUnits="userSpaceOnUse" primitiveUnits="userSpaceOnUse"><feComponentTransfer color-interpolation-filters="sRGB"><feFuncR type="discrete" tableValues="0 0"/><feFuncG type="discrete" tableValues="0 0"/><feFuncB type="discrete" tableValues="0 0"/><feFuncA type="linear" slope="0.4" intercept="0"/></feComponentTransfer><feGaussianBlur stdDeviation="2.22222 2.22222"/></filter><filter id="fx1" x="-10%" y="-10%" width="120%" height="120%" filterUnits="userSpaceOnUse" primitiveUnits="userSpaceOnUse"><feComponentTransfer color-interpolation-filters="sRGB"><feFuncR type="discrete" tableValues="0 0"/><feFuncG type="discrete" tableValues="0 0"/><feFuncB type="discrete" tableValues="0 0"/><feFuncA type="linear" slope="0.4" intercept="0"/></feComponentTransfer><feGaussianBlur stdDeviation="2.22222 2.22222"/></filter><filter id="fx2" x="-10%" y="-10%" width="120%" height="120%" filterUnits="userSpaceOnUse" primitiveUnits="userSpaceOnUse"><feComponentTransfer color-interpolation-filters="sRGB"><feFuncR type="discrete" tableValues="0 0"/><feFuncG type="discrete" tableValues="0 0"/><feFuncB type="discrete" tableValues="0 0"/><feFuncA type="linear" slope="0.4" intercept="0"/></feComponentTransfer><feGaussianBlur stdDeviation="2.22222 2.22222"/></filter><filter id="fx3" x="-10%" y="-10%" width="120%" height="120%" filterUnits="userSpaceOnUse" primitiveUnits="userSpaceOnUse"><feComponentTransfer color-interpolation-filters="sRGB"><feFuncR type="discrete" tableValues="0 0"/><feFuncG type="discrete" tableValues="0 0"/><feFuncB type="discrete" tableValues="0 0"/><feFuncA type="linear" slope="0.4" intercept="0"/></feComponentTransfer><feGaussianBlur stdDeviation="2.22222 2.22222"/></filter><filter id="fx4" x="-10%" y="-10%" width="120%" height="120%" filterUnits="userSpaceOnUse" primitiveUnits="userSpaceOnUse"><feComponentTransfer color-interpolation-filters="sRGB"><feFuncR type="discrete" tableValues="0 0"/><feFuncG type="discrete" tableValues="0 0"/><feFuncB type="discrete" tableValues="0 0"/><feFuncA type="linear" slope="0.4" intercept="0"/></feComponentTransfer><feGaussianBlur stdDeviation="2.22222 2.22222"/></filter><filter id="fx5" x="-10%" y="-10%" width="120%" height="120%" filterUnits="userSpaceOnUse" primitiveUnits="userSpaceOnUse"><feComponentTransfer color-interpolation-filters="sRGB"><feFuncR type="discrete" tableValues="0 0"/><feFuncG type="discrete" tableValues="0 0"/><feFuncB type="discrete" tableValues="0 0"/><feFuncA type="linear" slope="0.4" intercept="0"/></feComponentTransfer><feGaussianBlur stdDeviation="2.22222 2.22222"/></filter><filter id="fx6" x="-10%" y="-10%" width="120%" height="120%" filterUnits="userSpaceOnUse" primitiveUnits="userSpaceOnUse"><feComponentTransfer color-interpolation-filters="sRGB"><feFuncR type="discrete" tableValues="0 0"/><feFuncG type="discrete" tableValues="0 0"/><feFuncB type="discrete" tableValues="0 0"/><feFuncA type="linear" slope="0.4" intercept="0"/></feComponentTransfer><feGaussianBlur stdDeviation="2.22222 2.22222"/></filter><filter id="fx7" x="-10%" y="-10%" width="120%" height="120%" filterUnits="userSpaceOnUse" primitiveUnits="userSpaceOnUse"><feComponentTransfer color-interpolation-filters="sRGB"><feFuncR type="discrete" tableValues="0 0"/><feFuncG type="discrete" tableValues="0 0"/><feFuncB type="discrete" tableValues="0 0"/><feFuncA type="linear" slope="0.4" intercept="0"/></feComponentTransfer><feGaussianBlur stdDeviation="2.22222 2.22222"/></filter><filter id="fx8" x="-10%" y="-10%" width="120%" height="120%" filterUnits="userSpaceOnUse" primitiveUnits="userSpaceOnUse"><feComponentTransfer color-interpolation-filters="sRGB"><feFuncR type="discrete" tableValues="0 0"/><feFuncG type="discrete" tableValues="0 0"/><feFuncB type="discrete" tableValues="0 0"/><feFuncA type="linear" slope="0.4" intercept="0"/></feComponentTransfer><feGaussianBlur stdDeviation="2.22222 2.22222"/></filter><filter id="fx9" x="-10%" y="-10%" width="120%" height="120%" filterUnits="userSpaceOnUse" primitiveUnits="userSpaceOnUse"><feComponentTransfer color-interpolation-filters="sRGB"><feFuncR type="discrete" tableValues="0 0"/><feFuncG type="discrete" tableValues="0 0"/><feFuncB type="discrete" tableValues="0 0"/><feFuncA type="linear" slope="0.4" intercept="0"/></feComponentTransfer><feGaussianBlur stdDeviation="2.22222 2.22222"/></filter><filter id="fx10" x="-10%" y="-10%" width="120%" height="120%" filterUnits="userSpaceOnUse" primitiveUnits="userSpaceOnUse"><feComponentTransfer color-interpolation-filters="sRGB"><feFuncR type="discrete" tableValues="0 0"/><feFuncG type="discrete" tableValues="0 0"/><feFuncB type="discrete" tableValues="0 0"/><feFuncA type="linear" slope="0.4" intercept="0"/></feComponentTransfer><feGaussianBlur stdDeviation="2.22222 2.22222"/></filter><filter id="fx11" x="-10%" y="-10%" width="120%" height="120%" filterUnits="userSpaceOnUse" primitiveUnits="userSpaceOnUse"><feComponentTransfer color-interpolation-filters="sRGB"><feFuncR type="discrete" tableValues="0 0"/><feFuncG type="discrete" tableValues="0 0"/><feFuncB type="discrete" tableValues="0 0"/><feFuncA type="linear" slope="0.4" intercept="0"/></feComponentTransfer><feGaussianBlur stdDeviation="2.22222 2.22222"/></filter><filter id="fx12" x="-10%" y="-10%" width="120%" height="120%" filterUnits="userSpaceOnUse" primitiveUnits="userSpaceOnUse"><feComponentTransfer color-interpolation-filters="sRGB"><feFuncR type="discrete" tableValues="0 0"/><feFuncG type="discrete" tableValues="0 0"/><feFuncB type="discrete" tableValues="0 0"/><feFuncA type="linear" slope="0.4" intercept="0"/></feComponentTransfer><feGaussianBlur stdDeviation="2.22222 2.22222"/></filter><filter id="fx13" x="-10%" y="-10%" width="120%" height="120%" filterUnits="userSpaceOnUse" primitiveUnits="userSpaceOnUse"><feComponentTransfer color-interpolation-filters="sRGB"><feFuncR type="discrete" tableValues="0 0"/><feFuncG type="discrete" tableValues="0 0"/><feFuncB type="discrete" tableValues="0 0"/><feFuncA type="linear" slope="0.4" intercept="0"/></feComponentTransfer><feGaussianBlur stdDeviation="2.22222 2.22222"/></filter><filter id="fx14" x="-10%" y="-10%" width="120%" height="120%" filterUnits="userSpaceOnUse" primitiveUnits="userSpaceOnUse"><feComponentTransfer color-interpolation-filters="sRGB"><feFuncR type="discrete" tableValues="0 0"/><feFuncG type="discrete" tableValues="0 0"/><feFuncB type="discrete" tableValues="0 0"/><feFuncA type="linear" slope="0.4" intercept="0"/></feComponentTransfer><feGaussianBlur stdDeviation="2.22222 2.22222"/></filter><filter id="fx15" x="-10%" y="-10%" width="120%" height="120%" filterUnits="userSpaceOnUse" primitiveUnits="userSpaceOnUse"><feComponentTransfer color-interpolation-filters="sRGB"><feFuncR type="discrete" tableValues="0 0"/><feFuncG type="discrete" tableValues="0 0"/><feFuncB type="discrete" tableValues="0 0"/><feFuncA type="linear" slope="0.4" intercept="0"/></feComponentTransfer><feGaussianBlur stdDeviation="2.22222 2.22222"/></filter><filter id="fx16" x="-10%" y="-10%" width="120%" height="120%" filterUnits="userSpaceOnUse" primitiveUnits="userSpaceOnUse"><feComponentTransfer color-interpolation-filters="sRGB"><feFuncR type="discrete" tableValues="0 0"/><feFuncG type="discrete" tableValues="0 0"/><feFuncB type="discrete" tableValues="0 0"/><feFuncA type="linear" slope="0.4" intercept="0"/></feComponentTransfer><feGaussianBlur stdDeviation="2.22222 2.22222"/></filter><filter id="fx17" x="-10%" y="-10%" width="120%" height="120%" filterUnits="userSpaceOnUse" primitiveUnits="userSpaceOnUse"><feComponentTransfer color-interpolation-filters="sRGB"><feFuncR type="discrete" tableValues="0 0"/><feFuncG type="discrete" tableValues="0 0"/><feFuncB type="discrete" tableValues="0 0"/><feFuncA type="linear" slope="0.4" intercept="0"/></feComponentTransfer><feGaussianBlur stdDeviation="2.22222 2.22222"/></filter><filter id="fx18" x="-10%" y="-10%" width="120%" height="120%" filterUnits="userSpaceOnUse" primitiveUnits="userSpaceOnUse"><feComponentTransfer color-interpolation-filters="sRGB"><feFuncR type="discrete" tableValues="0 0"/><feFuncG type="discrete" tableValues="0 0"/><feFuncB type="discrete" tableValues="0 0"/><feFuncA type="linear" slope="0.4" intercept="0"/></feComponentTransfer><feGaussianBlur stdDeviation="2.22222 2.22222"/></filter><filter id="fx19" x="-10%" y="-10%" width="120%" height="120%" filterUnits="userSpaceOnUse" primitiveUnits="userSpaceOnUse"><feComponentTransfer color-interpolation-filters="sRGB"><feFuncR type="discrete" tableValues="0 0"/><feFuncG type="discrete" tableValues="0 0"/><feFuncB type="discrete" tableValues="0 0"/><feFuncA type="linear" slope="0.4" intercept="0"/></feComponentTransfer><feGaussianBlur stdDeviation="2.22222 2.22222"/></filter><clipPath id="clip20"><rect x="85" y="13" width="1197" height="700"/></clipPath><clipPath id="clip21"><rect x="-4" y="-2" width="168" height="78"/></clipPath><clipPath id="clip22"><rect x="0" y="0" width="161" height="74"/></clipPath><clipPath id="clip23"><rect x="-4" y="-2" width="168" height="78"/></clipPath><clipPath id="clip24"><rect x="0" y="0" width="160" height="74"/></clipPath><clipPath id="clip25"><rect x="-4" y="-2" width="168" height="78"/></clipPath><clipPath id="clip26"><rect x="0" y="0" width="161" height="73"/></clipPath><clipPath id="clip27"><rect x="-4" y="-2" width="168" height="78"/></clipPath><clipPath id="clip28"><rect x="0" y="0" width="160" height="73"/></clipPath><clipPath id="clip29"><rect x="-4" y="-2" width="168" height="78"/></clipPath><clipPath id="clip30"><rect x="0" y="0" width="161" height="73"/></clipPath><clipPath id="clip31"><rect x="-4" y="-2" width="168" height="78"/></clipPath><clipPath id="clip32"><rect x="0" y="0" width="160" height="73"/></clipPath><clipPath id="clip33"><rect x="-4" y="-2" width="168" height="78"/></clipPath><clipPath id="clip34"><rect x="0" y="0" width="161" height="73"/></clipPath><clipPath id="clip35"><rect x="-4" y="-2" width="168" height="78"/></clipPath><clipPath id="clip36"><rect x="0" y="0" width="160" height="73"/></clipPath><clipPath id="clip37"><rect x="-4" y="-2" width="168" height="78"/></clipPath><clipPath id="clip38"><rect x="0" y="0" width="160" height="73"/></clipPath><clipPath id="clip39"><rect x="-4" y="-2" width="168" height="78"/></clipPath><clipPath id="clip40"><rect x="0" y="0" width="161" height="74"/></clipPath><clipPath id="clip41"><rect x="-4" y="-2" width="168" height="78"/></clipPath><clipPath id="clip42"><rect x="0" y="0" width="161" height="74"/></clipPath><clipPath id="clip43"><rect x="-4" y="-2" width="168" height="78"/></clipPath><clipPath id="clip44"><rect x="0" y="0" width="161" height="74"/></clipPath><clipPath id="clip45"><rect x="-4" y="-2" width="168" height="78"/></clipPath><clipPath id="clip46"><rect x="0" y="0" width="161" height="74"/></clipPath><clipPath id="clip47"><rect x="-4" y="-2" width="168" height="78"/></clipPath><clipPath id="clip48"><rect x="0" y="0" width="161" height="74"/></clipPath><clipPath id="clip49"><rect x="-4" y="-2" width="168" height="78"/></clipPath><clipPath id="clip50"><rect x="0" y="0" width="160" height="73"/></clipPath><clipPath id="clip51"><rect x="-4" y="-2" width="168" height="78"/></clipPath><clipPath id="clip52"><rect x="0" y="0" width="160" height="73"/></clipPath><clipPath id="clip53"><rect x="-4" y="-2" width="168" height="78"/></clipPath><clipPath id="clip54"><rect x="0" y="0" width="160" height="73"/></clipPath><clipPath id="clip55"><rect x="-4" y="-2" width="168" height="78"/></clipPath><clipPath id="clip56"><rect x="0" y="0" width="160" height="73"/></clipPath><clipPath id="clip57"><rect x="-4" y="-2" width="168" height="78"/></clipPath><clipPath id="clip58"><rect x="0" y="0" width="160" height="74"/></clipPath><clipPath id="clip59"><rect x="-4" y="-2" width="168" height="78"/></clipPath><clipPath id="clip60"><rect x="0" y="0" width="160" height="74"/></clipPath></defs><g clip-path="url(#clip20)" transform="translate(-85 -13)"><g clip-path="url(#clip21)" filter="url(#fx0)" transform="translate(97 19)"><g clip-path="url(#clip22)"><path d="M7.57 20.3684C7.57 13.7805 12.9105 8.44 19.4983 8.44L141.502 8.44C148.09 8.44 153.43 13.7805 153.43 20.3684L153.43 53.6316C153.43 60.2195 148.09 65.56 141.502 65.56L19.4983 65.56C12.9105 65.56 7.57 60.2195 7.57 53.6316Z" fill="#C55A11" fill-rule="evenodd"/></g></g><path d="M106 39.6945C106 33.2358 111.236 28 117.694 28L237.306 28C243.764 28 249 33.2358 249 39.6945L249 72.3055C249 78.7642 243.764 84 237.306 84L117.694 84C111.236 84 106 78.7642 106 72.3055Z" fill="#C55A11" fill-rule="evenodd"/><text fill="#FFFFFF" font-family="Noto Sans,Noto Sans_MSFontService,sans-serif" font-weight="400" font-size="24" transform="translate(143.431 64)">Name</text><g clip-path="url(#clip23)" filter="url(#fx1)" transform="translate(249 19)"><g clip-path="url(#clip24)"><path d="M7.57999 20.3684C7.57999 13.7805 12.9205 8.44 19.5084 8.44L140.492 8.44C147.079 8.44 152.42 13.7805 152.42 20.3684L152.42 53.6316C152.42 60.2195 147.079 65.56 140.492 65.56L19.5084 65.56C12.9205 65.56 7.57999 60.2195 7.57999 53.6316Z" fill="#C55A11" fill-rule="evenodd"/></g></g><path d="M258 39.6945C258 33.2358 263.236 28 269.694 28L388.305 28C394.764 28 400 33.2358 400 39.6945L400 72.3055C400 78.7642 394.764 84 388.305 84L269.694 84C263.236 84 258 78.7642 258 72.3055Z" fill="#C55A11" fill-rule="evenodd"/><text fill="#FFFFFF" font-family="Noto Sans,Noto Sans_MSFontService,sans-serif" font-weight="400" font-size="24" transform="translate(283.804 64)">Position</text><g clip-path="url(#clip25)" filter="url(#fx2)" transform="translate(97 85)"><g clip-path="url(#clip26)"><path d="M7.57 20.1654C7.57 13.6952 12.8152 8.45 19.2854 8.45L141.715 8.45C148.185 8.45 153.43 13.6952 153.43 20.1654L153.43 52.8345C153.43 59.3047 148.185 64.5498 141.715 64.5498L19.2854 64.5498C12.8152 64.5498 7.57 59.3047 7.57 52.8345Z" fill="#C55A11" fill-rule="evenodd"/></g></g><path d="M106 105.486C106 99.1423 111.142 94 117.486 94L237.514 94C243.858 94 249 99.1423 249 105.486L249 137.514C249 143.858 243.858 149 237.514 149L117.486 149C111.142 149 106 143.858 106 137.514Z" fill="#C55A11" fill-rule="evenodd"/><text fill="#FFFFFF" font-family="Noto Sans,Noto Sans_MSFontService,sans-serif" font-weight="400" font-size="24" transform="translate(139.347 130)">Nation</text><g clip-path="url(#clip27)" filter="url(#fx3)" transform="translate(249 85)"><g clip-path="url(#clip28)"><path d="M7.57999 20.1653C7.57999 13.6951 12.8251 8.45 19.2953 8.45L140.705 8.45C147.175 8.45 152.42 13.6951 152.42 20.1653L152.42 52.8347C152.42 59.3049 147.175 64.55 140.705 64.55L19.2953 64.55C12.8251 64.55 7.57999 59.3049 7.57999 52.8347Z" fill="#C55A11" fill-rule="evenodd"/></g></g><path d="M258 105.486C258 99.1423 263.142 94 269.486 94L388.514 94C394.858 94 400 99.1423 400 105.486L400 137.514C400 143.858 394.858 149 388.514 149L269.486 149C263.142 149 258 143.858 258 137.514Z" fill="#C55A11" fill-rule="evenodd"/><text fill="#FFFFFF" font-family="Noto Sans,Noto Sans_MSFontService,sans-serif" font-weight="400" font-size="24" transform="translate(301.637 130)">Birth</text><g clip-path="url(#clip29)" filter="url(#fx4)" transform="translate(97 151)"><g clip-path="url(#clip30)"><path d="M7.57 20.1654C7.57 13.6952 12.8152 8.45 19.2854 8.45L141.715 8.45C148.185 8.45 153.43 13.6952 153.43 20.1654L153.43 52.8344C153.43 59.3047 148.185 64.5498 141.715 64.5498L19.2854 64.5498C12.8152 64.5498 7.57 59.3047 7.57 52.8344Z" fill="#C55A11" fill-rule="evenodd"/></g></g><path d="M106 171.486C106 165.142 111.142 160 117.486 160L237.514 160C243.858 160 249 165.142 249 171.486L249 203.514C249 209.858 243.858 215 237.514 215L117.486 215C111.142 215 106 209.858 106 203.514Z" fill="#C55A11" fill-rule="evenodd"/><text fill="#FFFFFF" font-family="Noto Sans,Noto Sans_MSFontService,sans-serif" font-weight="400" font-size="24" transform="translate(132.264 196)">Country</text><g clip-path="url(#clip31)" filter="url(#fx5)" transform="translate(249 151)"><g clip-path="url(#clip32)"><path d="M7.57999 20.1653C7.57999 13.6951 12.8251 8.45 19.2953 8.45L140.705 8.45C147.175 8.45 152.42 13.6951 152.42 20.1653L152.42 52.8347C152.42 59.3049 147.175 64.55 140.705 64.55L19.2953 64.55C12.8251 64.55 7.57999 59.3049 7.57999 52.8347Z" fill="#C55A11" fill-rule="evenodd"/></g></g><path d="M258 171.486C258 165.142 263.142 160 269.486 160L388.514 160C394.858 160 400 165.142 400 171.486L400 203.514C400 209.858 394.858 215 388.514 215L269.486 215C263.142 215 258 209.858 258 203.514Z" fill="#C55A11" fill-rule="evenodd"/><text fill="#FFFFFF" font-family="Noto Sans,Noto Sans_MSFontService,sans-serif" font-weight="400" font-size="24" transform="translate(291.304 196)">Height</text><g clip-path="url(#clip33)" filter="url(#fx6)" transform="translate(97 216)"><g clip-path="url(#clip34)"><path d="M7.57 20.1654C7.57 13.6952 12.8152 8.45 19.2854 8.45L141.715 8.45C148.185 8.45 153.43 13.6952 153.43 20.1654L153.43 52.8344C153.43 59.3047 148.185 64.5498 141.715 64.5498L19.2854 64.5498C12.8152 64.5498 7.57 59.3047 7.57 52.8344Z" fill="#C55A11" fill-rule="evenodd"/></g></g><path d="M106 236.486C106 230.142 111.142 225 117.486 225L237.514 225C243.858 225 249 230.142 249 236.486L249 268.514C249 274.858 243.858 280 237.514 280L117.486 280C111.142 280 106 274.858 106 268.514Z" fill="#C55A11" fill-rule="evenodd"/><text fill="#FFFFFF" font-family="Noto Sans,Noto Sans_MSFontService,sans-serif" font-weight="400" font-size="24" transform="translate(137.097 261)">Weight</text><g clip-path="url(#clip35)" filter="url(#fx7)" transform="translate(249 216)"><g clip-path="url(#clip36)"><path d="M7.57999 20.1653C7.57999 13.6951 12.8251 8.45 19.2953 8.45L140.705 8.45C147.175 8.45 152.42 13.6951 152.42 20.1653L152.42 52.8347C152.42 59.3049 147.175 64.55 140.705 64.55L19.2953 64.55C12.8251 64.55 7.57999 59.3049 7.57999 52.8347Z" fill="#C55A11" fill-rule="evenodd"/></g></g><path d="M258 236.486C258 230.142 263.142 225 269.486 225L388.514 225C394.858 225 400 230.142 400 236.486L400 268.514C400 274.858 394.858 280 388.514 280L269.486 280C263.142 280 258 274.858 258 268.514Z" fill="#C55A11" fill-rule="evenodd"/><text fill="#FFFFFF" font-family="Noto Sans,Noto Sans_MSFontService,sans-serif" font-weight="400" font-size="24" transform="translate(304.137 261)">Foot</text><g clip-path="url(#clip37)" filter="url(#fx8)" transform="translate(503 376)"><g clip-path="url(#clip38)"><path d="M7.57999 20.1654C7.57999 13.6952 12.8251 8.45001 19.2953 8.45001L140.705 8.45001C147.175 8.45001 152.42 13.6952 152.42 20.1654L152.42 52.8347C152.42 59.3049 147.175 64.55 140.705 64.55L19.2953 64.55C12.8251 64.55 7.57999 59.3049 7.57999 52.8347Z" fill="#00B050" fill-rule="evenodd"/></g></g><path d="M512 396.486C512 390.142 517.142 385 523.486 385L642.514 385C648.858 385 654 390.142 654 396.486L654 428.514C654 434.858 648.858 440 642.514 440L523.486 440C517.142 440 512 434.858 512 428.514Z" fill="#00B050" fill-rule="evenodd"/><text fill="#FFFFFF" font-family="Noto Sans,Noto Sans_MSFontService,sans-serif" font-weight="400" font-size="24" transform="translate(531.273 421)">Player<tspan font-weight="700" x="75.8334" y="0">ID</tspan></text><path d="M88 23.9543C88 19.009 92.009 15 96.9543 15L408.046 15C412.991 15 417 19.009 417 23.9543L417 286.046C417 290.991 412.991 295 408.046 295L96.9543 295C92.009 295 88 290.991 88 286.046Z" stroke="#C55A11" stroke-width="4" stroke-miterlimit="8" stroke-dasharray="16 12 4 12" fill="none" fill-rule="evenodd"/><text fill="#C55A11" font-family="Noto Sans,Noto Sans_MSFontService,sans-serif" font-weight="700" font-size="24" transform="translate(426.221 45)">Person.csv</text><g clip-path="url(#clip39)" filter="url(#fx9)" transform="translate(666 46)"><g clip-path="url(#clip40)"><path d="M7.57001 20.3684C7.57001 13.7805 12.9105 8.44 19.4983 8.44L141.502 8.44C148.09 8.44 153.43 13.7805 153.43 20.3684L153.43 53.6316C153.43 60.2195 148.09 65.56 141.502 65.56L19.4983 65.56C12.9105 65.56 7.57001 60.2195 7.57001 53.6316Z" fill="#7030A0" fill-rule="evenodd"/></g></g><path d="M675 66.6945C675 60.2358 680.236 55 686.694 55L806.306 55C812.764 55 818 60.2358 818 66.6945L818 99.3055C818 105.764 812.764 111 806.306 111L686.694 111C680.236 111 675 105.764 675 99.3055Z" fill="#7030A0" fill-rule="evenodd"/><text fill="#FFFFFF" font-family="Noto Sans,Noto Sans_MSFontService,sans-serif" font-weight="400" font-size="24" transform="translate(715.134 91)">Team</text><g clip-path="url(#clip41)" filter="url(#fx10)" transform="translate(818 46)"><g clip-path="url(#clip42)"><path d="M7.57001 20.3684C7.57001 13.7805 12.9105 8.44 19.4983 8.44L141.502 8.44C148.09 8.44 153.43 13.7805 153.43 20.3684L153.43 53.6316C153.43 60.2195 148.09 65.56 141.502 65.56L19.4983 65.56C12.9105 65.56 7.57001 60.2195 7.57001 53.6316Z" fill="#7030A0" fill-rule="evenodd"/></g></g><path d="M827 66.6945C827 60.2358 832.236 55 838.694 55L958.306 55C964.764 55 970 60.2358 970 66.6945L970 99.3055C970 105.764 964.764 111 958.306 111L838.694 111C832.236 111 827 105.764 827 99.3055Z" fill="#7030A0" fill-rule="evenodd"/><text fill="#FFFFFF" font-family="Noto Sans,Noto Sans_MSFontService,sans-serif" font-weight="400" font-size="24" transform="translate(864.841 91)">Active</text><g clip-path="url(#clip43)" filter="url(#fx11)" transform="translate(666 110)"><g clip-path="url(#clip44)"><path d="M7.57001 20.3684C7.57001 13.7805 12.9105 8.44 19.4983 8.44L141.502 8.44C148.09 8.44 153.43 13.7805 153.43 20.3684L153.43 53.6317C153.43 60.2195 148.09 65.56 141.502 65.56L19.4983 65.56C12.9105 65.56 7.57001 60.2195 7.57001 53.6317Z" fill="#7030A0" fill-rule="evenodd"/></g></g><path d="M675 130.694C675 124.236 680.236 119 686.694 119L806.306 119C812.764 119 818 124.236 818 130.694L818 163.306C818 169.764 812.764 175 806.306 175L686.694 175C680.236 175 675 169.764 675 163.306Z" fill="#7030A0" fill-rule="evenodd"/><text fill="#FFFFFF" font-family="Noto Sans,Noto Sans_MSFontService,sans-serif" font-weight="400" font-size="24" transform="translate(689.967 156)">Start Date</text><g clip-path="url(#clip45)" filter="url(#fx12)" transform="translate(818 110)"><g clip-path="url(#clip46)"><path d="M7.57001 20.3684C7.57001 13.7805 12.9105 8.44 19.4983 8.44L141.502 8.44C148.09 8.44 153.43 13.7805 153.43 20.3684L153.43 53.6317C153.43 60.2195 148.09 65.56 141.502 65.56L19.4983 65.56C12.9105 65.56 7.57001 60.2195 7.57001 53.6317Z" fill="#7030A0" fill-rule="evenodd"/></g></g><path d="M827 130.694C827 124.236 832.236 119 838.694 119L958.306 119C964.764 119 970 124.236 970 130.694L970 163.306C970 169.764 964.764 175 958.306 175L838.694 175C832.236 175 827 169.764 827 163.306Z" fill="#7030A0" fill-rule="evenodd"/><text fill="#FFFFFF" font-family="Noto Sans,Noto Sans_MSFontService,sans-serif" font-weight="400" font-size="24" transform="translate(847.341 156)">End Date</text><g clip-path="url(#clip47)" filter="url(#fx13)" transform="translate(666 178)"><g clip-path="url(#clip48)"><path d="M7.57001 20.3684C7.57001 13.7805 12.9105 8.44 19.4983 8.44L141.502 8.44C148.09 8.44 153.43 13.7805 153.43 20.3684L153.43 53.6317C153.43 60.2195 148.09 65.56 141.502 65.56L19.4983 65.56C12.9105 65.56 7.57001 60.2195 7.57001 53.6317Z" fill="#7030A0" fill-rule="evenodd"/></g></g><path d="M675 198.694C675 192.236 680.236 187 686.694 187L806.306 187C812.764 187 818 192.236 818 198.694L818 231.306C818 237.764 812.764 243 806.306 243L686.694 243C680.236 243 675 237.764 675 231.306Z" fill="#7030A0" fill-rule="evenodd"/><text fill="#FFFFFF" font-family="Noto Sans,Noto Sans_MSFontService,sans-serif" font-weight="400" font-size="24" transform="translate(699.217 224)">Transfer</text><path d="M657 50.7797C657 47.0354 660.035 44 663.78 44L979.22 44C982.965 44 986 47.0354 986 50.7797L986 249.22C986 252.965 982.965 256 979.22 256L663.78 256C660.035 256 657 252.965 657 249.22Z" stroke="#7030A0" stroke-width="4" stroke-miterlimit="8" stroke-dasharray="16 12 4 12" fill="none" fill-rule="evenodd"/><text fill="#7030A0" font-family="Noto Sans,Noto Sans_MSFontService,sans-serif" font-weight="700" font-size="24" transform="translate(1068.53 296)">Membership.csv</text><path d="M511.287 414.98 250 414.98 250 305 254 305 254 412.98 252 410.98 511.287 410.98ZM246 307 252 295 258 307Z"/><path d="M0-2 169.51-2 169.51 146.678 165.51 146.678 165.51 0 167.51 2 0 2ZM173.51 144.678 167.51 156.678 161.51 144.678Z" transform="matrix(1 0 0 -1 654 412.678)"/><path d="M1004 45.4944C1004 44.1168 1005.12 43 1006.49 43L1079.51 43C1080.88 43 1082 44.1168 1082 45.4944L1082 252.506C1082 253.883 1080.88 255 1079.51 255L1006.49 255C1005.12 255 1004 253.883 1004 252.506Z" stroke="#7030A0" stroke-width="4" stroke-miterlimit="8" stroke-dasharray="16 12 4 12" fill="#E8D1FF" fill-rule="evenodd"/><path d="M1159 45.4944C1159 44.1168 1160.12 43 1161.49 43L1234.51 43C1235.88 43 1237 44.1168 1237 45.4944L1237 252.506C1237 253.883 1235.88 255 1234.51 255L1161.49 255C1160.12 255 1159 253.883 1159 252.506Z" stroke="#7030A0" stroke-width="4" stroke-miterlimit="8" stroke-dasharray="16 12 4 12" fill="#E8D1FF" fill-rule="evenodd"/><text font-family="Noto Sans,Noto Sans_MSFontService,sans-serif" font-weight="700" font-size="24" transform="translate(870.709 692)">…</text><g clip-path="url(#clip49)" filter="url(#fx14)" transform="translate(725 467)"><g clip-path="url(#clip50)"><path d="M7.58002 20.1654C7.58002 13.6952 12.8252 8.45001 19.2954 8.45001L140.705 8.45001C147.175 8.45001 152.42 13.6952 152.42 20.1654L152.42 52.8347C152.42 59.3049 147.175 64.55 140.705 64.55L19.2954 64.55C12.8252 64.55 7.58002 59.3049 7.58002 52.8347Z" fill="#0070C0" fill-rule="evenodd"/></g></g><path d="M734 487.486C734 481.142 739.142 476 745.486 476L864.514 476C870.858 476 876 481.142 876 487.486L876 519.514C876 525.858 870.858 531 864.514 531L745.486 531C739.142 531 734 525.858 734 519.514Z" fill="#0070C0" fill-rule="evenodd"/><text fill="#FFFFFF" font-family="Noto Sans,Noto Sans_MSFontService,sans-serif" font-weight="400" font-size="19" transform="translate(750.924 510)">Competition</text><g clip-path="url(#clip51)" filter="url(#fx15)" transform="translate(877 467)"><g clip-path="url(#clip52)"><path d="M7.58002 20.1654C7.58002 13.6952 12.8252 8.45001 19.2954 8.45001L140.705 8.45001C147.175 8.45001 152.42 13.6952 152.42 20.1654L152.42 52.8347C152.42 59.3049 147.175 64.55 140.705 64.55L19.2954 64.55C12.8252 64.55 7.58002 59.3049 7.58002 52.8347Z" fill="#0070C0" fill-rule="evenodd"/></g></g><path d="M886 487.486C886 481.142 891.142 476 897.486 476L1016.51 476C1022.86 476 1028 481.142 1028 487.486L1028 519.514C1028 525.858 1022.86 531 1016.51 531L897.486 531C891.142 531 886 525.858 886 519.514Z" fill="#0070C0" fill-rule="evenodd"/><text fill="#FFFFFF" font-family="Noto Sans,Noto Sans_MSFontService,sans-serif" font-weight="400" font-size="21" transform="translate(912.048 511)">Calendar</text><g clip-path="url(#clip53)" filter="url(#fx16)" transform="translate(725 537)"><g clip-path="url(#clip54)"><path d="M7.58002 20.1654C7.58002 13.6952 12.8252 8.45001 19.2954 8.45001L140.705 8.45001C147.175 8.45001 152.42 13.6952 152.42 20.1654L152.42 52.8347C152.42 59.3049 147.175 64.55 140.705 64.55L19.2954 64.55C12.8252 64.55 7.58002 59.3049 7.58002 52.8347Z" fill="#0070C0" fill-rule="evenodd"/></g></g><path d="M734 557.486C734 551.142 739.142 546 745.486 546L864.514 546C870.858 546 876 551.142 876 557.486L876 589.514C876 595.858 870.858 601 864.514 601L745.486 601C739.142 601 734 595.858 734 589.514Z" fill="#0070C0" fill-rule="evenodd"/><text fill="#FFFFFF" font-family="Noto Sans,Noto Sans_MSFontService,sans-serif" font-weight="400" font-size="21" transform="translate(782.257 581)">Goal</text><g clip-path="url(#clip55)" filter="url(#fx17)" transform="translate(877 537)"><g clip-path="url(#clip56)"><path d="M7.58002 20.1654C7.58002 13.6952 12.8252 8.45001 19.2954 8.45001L140.705 8.45001C147.175 8.45001 152.42 13.6952 152.42 20.1654L152.42 52.8347C152.42 59.3049 147.175 64.55 140.705 64.55L19.2954 64.55C12.8252 64.55 7.58002 59.3049 7.58002 52.8347Z" fill="#0070C0" fill-rule="evenodd"/></g></g><path d="M886 557.486C886 551.142 891.142 546 897.486 546L1016.51 546C1022.86 546 1028 551.142 1028 557.486L1028 589.514C1028 595.858 1022.86 601 1016.51 601L897.486 601C891.142 601 886 595.858 886 589.514Z" fill="#0070C0" fill-rule="evenodd"/><text fill="#FFFFFF" font-family="Noto Sans,Noto Sans_MSFontService,sans-serif" font-weight="400" font-size="21" transform="translate(928.465 581)">Assist</text><g clip-path="url(#clip57)" filter="url(#fx18)" transform="translate(725 607)"><g clip-path="url(#clip58)"><path d="M7.58002 20.3684C7.58002 13.7805 12.9205 8.44 19.5084 8.44L140.492 8.44C147.079 8.44 152.42 13.7805 152.42 20.3684L152.42 53.6316C152.42 60.2195 147.079 65.56 140.492 65.56L19.5084 65.56C12.9205 65.56 7.58002 60.2195 7.58002 53.6316Z" fill="#0070C0" fill-rule="evenodd"/></g></g><path d="M734 627.695C734 621.236 739.236 616 745.695 616L864.305 616C870.764 616 876 621.236 876 627.695L876 660.305C876 666.764 870.764 672 864.305 672L745.695 672C739.236 672 734 666.764 734 660.305Z" fill="#0070C0" fill-rule="evenodd"/><text fill="#FFFFFF" font-family="Noto Sans,Noto Sans_MSFontService,sans-serif" font-weight="400" font-size="19" transform="translate(752.59 651)">Appearance</text><g clip-path="url(#clip59)" filter="url(#fx19)" transform="translate(877 607)"><g clip-path="url(#clip60)"><path d="M7.58002 20.3684C7.58002 13.7805 12.9205 8.44 19.5084 8.44L140.492 8.44C147.079 8.44 152.42 13.7805 152.42 20.3684L152.42 53.6316C152.42 60.2195 147.079 65.56 140.492 65.56L19.5084 65.56C12.9205 65.56 7.58002 60.2195 7.58002 53.6316Z" fill="#0070C0" fill-rule="evenodd"/></g></g><path d="M886 627.695C886 621.236 891.236 616 897.695 616L1016.31 616C1022.76 616 1028 621.236 1028 627.695L1028 660.305C1028 666.764 1022.76 672 1016.31 672L897.695 672C891.236 672 886 666.764 886 660.305Z" fill="#0070C0" fill-rule="evenodd"/><text fill="#FFFFFF" font-family="Noto Sans,Noto Sans_MSFontService,sans-serif" font-weight="400" font-size="19" transform="translate(908.464 640)">Yellow/Red<tspan x="27.9133" y="22">Car</tspan>d</text><path d="M716 471.707C716 467.451 719.451 464 723.707 464L1037.29 464C1041.55 464 1045 467.451 1045 471.707L1045 697.293C1045 701.549 1041.55 705 1037.29 705L723.707 705C719.451 705 716 701.549 716 697.293Z" stroke="#0070C0" stroke-width="4" stroke-miterlimit="8" stroke-dasharray="16 12 4 12" fill="none" fill-rule="evenodd"/><text fill="#0070C0" font-family="Noto Sans,Noto Sans_MSFontService,sans-serif" font-weight="700" font-size="24" transform="translate(1168.27 445)">Stat.csv</text><path d="M0-2 146.467-2 146.467 122.998 142.467 122.998 142.467 0 144.467 2 0 2ZM150.467 120.998 144.467 132.998 138.467 120.998Z" transform="matrix(1.83697e-16 1 1 -1.83697e-16 583 440)"/><path d="M1065 467.27C1065 466.017 1066.02 465 1067.27 465L1133.73 465C1134.98 465 1136 466.017 1136 467.27L1136 704.729C1136 705.983 1134.98 707 1133.73 707L1067.27 707C1066.02 707 1065 705.983 1065 704.729Z" stroke="#0070C0" stroke-width="4" stroke-miterlimit="8" stroke-dasharray="16 12 4 12" fill="#DAE3F3" fill-rule="evenodd"/><path d="M1193 467.302C1193 466.031 1194.03 465 1195.3 465L1262.7 465C1263.97 465 1265 466.031 1265 467.302L1265 704.698C1265 705.969 1263.97 707 1262.7 707L1195.3 707C1194.03 707 1193 705.969 1193 704.698Z" stroke="#0070C0" stroke-width="4" stroke-miterlimit="8" stroke-dasharray="16 12 4 12" fill="#DAE3F3" fill-rule="evenodd"/><text font-family="Noto Sans,Noto Sans_MSFontService,sans-serif" font-weight="700" font-size="24" transform="translate(1109.95 158)">…<tspan x="44.3774" y="436">…</tspan></text></g></svg>